<?xml version="1.0" encoding="utf-8"?>
<!-- Generator: Adobe Illustrator 23.0.1, SVG Export Plug-In . SVG Version: 6.00 Build 0)  -->
<svg version="1.1" id="Layer_1" xmlns="http://www.w3.org/2000/svg" xmlns:xlink="http://www.w3.org/1999/xlink" x="0px" y="0px"
	 viewBox="0 0 202.91 130.97" style="enable-background:new 0 0 202.91 130.97;" xml:space="preserve">
<style type="text/css">
	.st0{fill:#E9EBF2;}
	.st1{fill:url(#SVGID_1_);}
	.st2{fill:url(#SVGID_2_);}
	.st3{fill:url(#SVGID_3_);}
	.st4{fill:url(#SVGID_4_);}
	.st5{fill:url(#SVGID_5_);}
	.st6{fill:url(#SVGID_6_);}
	.st7{fill:url(#SVGID_7_);}
	.st8{fill:url(#SVGID_8_);}
	.st9{fill:url(#SVGID_9_);}
	.st10{fill:url(#SVGID_10_);}
	.st11{filter:url(#Adobe_OpacityMaskFilter);}
	.st12{opacity:0.73;fill:url(#SVGID_12_);}
	.st13{opacity:0.83;mask:url(#SVGID_11_);fill:#FFFFFF;}
	.st14{filter:url(#Adobe_OpacityMaskFilter_1_);}
	.st15{opacity:0.73;fill:url(#SVGID_14_);}
	.st16{opacity:0.04;mask:url(#SVGID_13_);fill:#FFFFFF;}
	.st17{fill:#ff0033;}
</style>
<g>
	<g>
		<path class="st0" d="M91.59,77.11c-10.1,5.45-22-3.24-19.97-14.58c0.94-5.29,0.02-13.12-6.09-19.01
			c-8.28-7.98-3.74-21.85,7.62-23.42c6.92-0.95,12.91-5.33,15.94-11.65c4.91-10.2,19.59-10.58,24.66,0
			c3.04,6.32,9.03,10.69,15.95,11.65c11.36,1.56,15.89,15.64,7.52,23.52c-6.52,6.14-6.93,13.61-5.98,18.9
			c2.03,11.34-9.87,20.03-19.97,14.58C104.83,73.64,97.44,73.95,91.59,77.11z"/>
		<g>
			<linearGradient id="SVGID_1_" gradientUnits="userSpaceOnUse" x1="101.4339" y1="0.1301" x2="101.4339" y2="78.7784">
				<stop  offset="0.0879" style="stop-color:#FFFFFF"/>
				<stop  offset="0.1239" style="stop-color:#EBEBEC;stop-opacity:0.9933"/>
				<stop  offset="0.4395" style="stop-color:#909398;stop-opacity:0.9345"/>
				<stop  offset="0.7008" style="stop-color:#60656C;stop-opacity:0.8858"/>
				<stop  offset="0.8948" style="stop-color:#474F56;stop-opacity:0.8496"/>
				<stop  offset="1" style="stop-color:#3E484F;stop-opacity:0.83"/>
			</linearGradient>
			<path class="st1" d="M85.11,78.78c-4.08,0-8.11-1.92-10.78-5.12c-2.67-3.21-3.72-7.28-2.98-11.46c0.46-2.56,1.6-11.63-5.78-18.75
				c-3.9-3.76-5.52-9.13-3.85-14.3c1.68-5.18,6.04-8.84,11.4-9.58c6.84-0.94,12.71-5.24,15.72-11.49c2.36-4.9,7.2-7.94,12.64-7.94
				c5.45,0,10.12,2.97,12.52,7.94c3.01,6.25,8.88,10.55,15.72,11.49c5.36,0.74,9.72,4.41,11.4,9.58c1.67,5.17,0.16,10.66-3.74,14.42
				c-7.38,7.12-6.34,16.07-5.88,18.63c0.75,4.17-0.31,8.25-2.98,11.45c-2.67,3.21-6.69,5.13-10.78,5.13c-2.29,0-4.52-0.58-6.6-1.71
				c-2.98-1.6-6.33-2.46-9.69-2.46c-3.39,0-6.75,0.85-9.73,2.46C89.62,78.2,87.4,78.77,85.11,78.78L85.11,78.78z M101.49,0.7
				c-5.22,0-9.87,2.92-12.14,7.63c-3.08,6.42-9.12,10.83-16.15,11.8c-5.14,0.71-9.33,4.23-10.94,9.2
				c-1.6,4.96-0.27,10.29,3.48,13.91c7.58,7.31,6.63,16.44,6.17,19.07c-0.72,4.01,0.3,7.91,2.86,10.99
				c2.56,3.08,6.43,4.92,10.34,4.92l0,0c2.2,0,4.33-0.55,6.34-1.63c3.06-1.65,6.52-2.53,10-2.53c3.45,0,6.89,0.87,9.95,2.53
				c2.01,1.08,4.14,1.63,6.34,1.63c3.92,0,7.79-1.84,10.35-4.92c2.56-3.08,3.57-6.98,2.85-10.99c-0.47-2.63-1.41-11.76,6.18-19.07
				c3.74-3.62,5.07-8.95,3.47-13.91c-1.61-4.96-5.79-8.49-10.94-9.2c-7.03-0.97-13.06-5.38-16.15-11.8
				C111.2,3.55,106.71,0.7,101.49,0.7z"/>
		</g>
		<g>
			<linearGradient id="SVGID_2_" gradientUnits="userSpaceOnUse" x1="101.4533" y1="78.3515" x2="101.4533" y2="-9.094947e-13">
				<stop  offset="0" style="stop-color:#FFFFFF"/>
				<stop  offset="0.1411" style="stop-color:#424C53"/>
				<stop  offset="0.263" style="stop-color:#868A8F"/>
				<stop  offset="0.3313" style="stop-color:#BCBDBD"/>
				<stop  offset="0.4233" style="stop-color:#424C53;stop-opacity:0.92"/>
				<stop  offset="0.5811" style="stop-color:#868C95;stop-opacity:0.9702"/>
				<stop  offset="0.6748" style="stop-color:#C2C7D0"/>
				<stop  offset="0.724" style="stop-color:#C6CAD3"/>
				<stop  offset="0.7803" style="stop-color:#D3D6DC"/>
				<stop  offset="0.84" style="stop-color:#E9EAEC"/>
				<stop  offset="0.8773" style="stop-color:#FFFFFF"/>
				<stop  offset="1" style="stop-color:#C2C7D0"/>
			</linearGradient>
			<path class="st2" d="M85.13,78.35c-4.08,0-8.11-1.91-10.78-5.1c-2.67-3.2-3.81-7.24-3.12-11.41c0.52-3.16,1.64-10.99-5.86-18.46
				c-3.8-3.8-5.29-9.32-3.62-14.47c1.67-5.15,6.04-8.81,11.39-9.55c6.84-0.94,12.71-5.22,15.72-11.44C91.23,3.03,96.07,0,101.51,0
				c5.44,0,10.12,2.96,12.51,7.92c3.01,6.23,8.88,10.51,15.72,11.44c5.36,0.74,9.73,4.4,11.4,9.55c1.67,5.15,0.28,10.68-3.62,14.44
				c-7.38,7.09-6.47,15.95-6.01,18.5c0.75,4.16-0.31,8.22-2.98,11.41c-2.67,3.2-6.69,5.1-10.78,5.1c-2.29,0-4.52-0.57-6.6-1.69
				c-2.98-1.6-6.33-2.45-9.69-2.45c-3.39,0-6.75,0.84-9.73,2.45C89.65,77.78,87.42,78.35,85.13,78.35L85.13,78.35z M101.51,0.56
				c-5.23,0-9.88,2.91-12.14,7.6c-3.08,6.4-9.12,10.79-16.15,11.76c-5.14,0.71-9.33,4.22-10.94,9.16
				c-1.6,4.95-0.27,10.26,3.47,13.86c7.58,7.28,6.64,16.38,6.17,19c-0.72,4,0.3,7.89,2.86,10.95c2.56,3.07,6.43,4.9,10.34,4.9l0,0
				c2.2,0,4.33-0.54,6.34-1.62c3.06-1.65,6.52-2.51,10-2.51c3.45,0,6.89,0.87,9.95,2.51c2.01,1.08,4.14,1.62,6.34,1.62
				c3.92,0,7.79-1.83,10.35-4.9c2.56-3.07,3.57-6.96,2.85-10.95c-0.47-2.62-1.41-11.72,6.17-19c3.74-3.6,5.08-8.91,3.48-13.86
				c-1.6-4.94-5.79-8.45-10.94-9.16c-7.02-0.97-13.06-5.36-16.15-11.76C111.22,3.41,106.73,0.56,101.51,0.56z"/>
		</g>
		<linearGradient id="SVGID_3_" gradientUnits="userSpaceOnUse" x1="92.8304" y1="11.365" x2="113.2784" y2="67.5454">
			<stop  offset="0" style="stop-color:#D5D7E0"/>
			<stop  offset="0.0274" style="stop-color:#DFE1E7"/>
			<stop  offset="0.0844" style="stop-color:#EFEFF2"/>
			<stop  offset="0.1493" style="stop-color:#FAFAFB"/>
			<stop  offset="0.2393" style="stop-color:#FFFFFF"/>
			<stop  offset="0.4375" style="stop-color:#F8F9F9"/>
			<stop  offset="0.6334" style="stop-color:#EBECEE"/>
			<stop  offset="0.8278" style="stop-color:#D8DBE0"/>
			<stop  offset="1" style="stop-color:#C2C7D0"/>
		</linearGradient>
		<path class="st3" d="M73.46,71.09c3.35,5.77,10.86,8.55,17.67,5.29c0.19-0.09,0.4-0.19,0.59-0.3c5.81-3.11,13.13-3.41,19.53,0.03
			c0.2,0.11,0.41,0.22,0.59,0.3c6.89,3.21,14.46,0.3,17.64-5.52c1.51-2.6,2.07-5.47,1.46-9.18c-0.46-2.74-0.36-6.1,0.64-9.53
			c0.9-3.11,2.62-6.27,5.51-9.05c2.4-2.3,3.61-5.16,4.05-8.02c0.9-5.86-2.74-12.48-8.28-14.33c-0.53-0.21-1.96-0.65-4.08-1.03
			c-6.51-1.16-12.04-5.14-15.06-11.38c-0.48-0.99-1.37-2.23-1.99-3.04c-4.71-6.14-15.04-6.65-20.49-0.12
			c-0.81,0.97-1.42,2.03-1.98,3.16c-3.08,6.23-8.98,10.45-15.81,11.49c-1.23,0.19-2.38,0.45-3.44,0.89
			c-5.63,2.21-8.95,8.2-8.28,13.99c0.32,2.87,1.62,5.9,4.02,8.2c2.89,2.77,4.44,5.99,5.43,8.69c1.23,3.34,1.23,7.34,0.74,10.08
			C71.31,65.11,71.95,68.49,73.46,71.09z"/>
		<radialGradient id="SVGID_4_" cx="133.7219" cy="35.6642" r="39.2169" gradientUnits="userSpaceOnUse">
			<stop  offset="0" style="stop-color:#C2C7D0"/>
			<stop  offset="1" style="stop-color:#C2C7D0;stop-opacity:0"/>
		</radialGradient>
		<path class="st4" d="M73.46,71.09c3.35,5.77,10.86,8.55,17.67,5.29c0.19-0.09,0.4-0.19,0.59-0.3c5.81-3.11,13.13-3.41,19.53,0.03
			c0.2,0.11,0.41,0.22,0.59,0.3c6.89,3.21,14.46,0.3,17.64-5.52c1.51-2.6,2.07-5.47,1.46-9.18c-0.46-2.74-0.36-6.1,0.64-9.53
			c0.9-3.11,2.62-6.27,5.51-9.05c2.4-2.3,3.61-5.16,4.05-8.02c0.9-5.86-2.74-12.48-8.28-14.33c-0.53-0.21-1.96-0.65-4.08-1.03
			c-6.51-1.16-12.04-5.14-15.06-11.38c-0.48-0.99-1.37-2.23-1.99-3.04c-4.71-6.14-15.04-6.65-20.49-0.12
			c-0.81,0.97-1.42,2.03-1.98,3.16c-3.08,6.23-8.98,10.45-15.81,11.49c-1.23,0.19-2.38,0.45-3.44,0.89
			c-5.63,2.21-8.95,8.2-8.28,13.99c0.32,2.87,1.62,5.9,4.02,8.2c2.89,2.77,4.44,5.99,5.43,8.69c1.23,3.34,1.23,7.34,0.74,10.08
			C71.31,65.11,71.95,68.49,73.46,71.09z"/>
		<linearGradient id="SVGID_5_" gradientUnits="userSpaceOnUse" x1="95.7298" y1="1.2451" x2="124.2316" y2="64.5029">
			<stop  offset="0" style="stop-color:#404E56"/>
			<stop  offset="0.055" style="stop-color:#515C64"/>
			<stop  offset="0.1628" style="stop-color:#6F7981"/>
			<stop  offset="0.2726" style="stop-color:#8B939B"/>
			<stop  offset="0.3834" style="stop-color:#A1A8B0"/>
			<stop  offset="0.4961" style="stop-color:#AFB6BD"/>
			<stop  offset="0.6135" style="stop-color:#B5BBC3"/>
			<stop  offset="0.6316" style="stop-color:#B7BDC4"/>
			<stop  offset="0.8399" style="stop-color:#C6CBD2"/>
			<stop  offset="1" style="stop-color:#CCD0D8"/>
		</linearGradient>
		<path class="st5" d="M130.73,59.65c-20.46-32.31-58.86-39.49-58.86-39.49c1.25-0.27,2.51-0.45,3.77-0.79
			c4-1.09,10.48-4.04,13.79-11.33c4.23-9.28,18.71-10.68,23.98-0.2c3.02,6.02,7.27,10.63,16.62,12.14
			c10.23,1.65,15.64,14.7,6.75,23.47C136.77,43.45,130.01,49.68,130.73,59.65z"/>
		<radialGradient id="SVGID_6_" cx="115.1692" cy="41.674" r="19.2549" fx="113.8339" fy="42.0186" gradientUnits="userSpaceOnUse">
			<stop  offset="0" style="stop-color:#FFFFFF;stop-opacity:0.16"/>
			<stop  offset="0.0223" style="stop-color:#FFFFFF;stop-opacity:0.1564"/>
			<stop  offset="1" style="stop-color:#FFFFFF;stop-opacity:0"/>
		</radialGradient>
		<path class="st6" d="M130.73,59.65c-20.46-32.31-58.86-39.49-58.86-39.49c1.25-0.27,2.51-0.45,3.77-0.79
			c4-1.09,10.48-4.04,13.79-11.33c4.23-9.28,18.71-10.68,23.98-0.2c3.02,6.02,7.27,10.63,16.62,12.14
			c10.23,1.65,15.64,14.7,6.75,23.47C136.77,43.45,130.01,49.68,130.73,59.65z"/>
		<radialGradient id="SVGID_7_" cx="77.5749" cy="20.0957" r="19.2552" fx="77.0262" fy="18.8305" gradientUnits="userSpaceOnUse">
			<stop  offset="0" style="stop-color:#333D48;stop-opacity:0.2"/>
			<stop  offset="0.1471" style="stop-color:#36404A;stop-opacity:0.1706"/>
			<stop  offset="0.5646" style="stop-color:#3C464E;stop-opacity:0.0871"/>
			<stop  offset="1" style="stop-color:#3E484F;stop-opacity:0"/>
		</radialGradient>
		<path class="st7" d="M130.73,59.65c-20.46-32.31-58.86-39.49-58.86-39.49c1.25-0.27,2.51-0.45,3.77-0.79
			c4-1.09,10.48-4.04,13.79-11.33c4.23-9.28,18.71-10.68,23.98-0.2c3.02,6.02,7.27,10.63,16.62,12.14
			c10.23,1.65,15.64,14.7,6.75,23.47C136.77,43.45,130.01,49.68,130.73,59.65z"/>
		<radialGradient id="SVGID_8_" cx="130.6386" cy="6.9689" r="25.5954" fx="129.9093" fy="5.2871" gradientUnits="userSpaceOnUse">
			<stop  offset="0" style="stop-color:#333D48;stop-opacity:0.3"/>
			<stop  offset="0.5297" style="stop-color:#3B444C;stop-opacity:0.1411"/>
			<stop  offset="1" style="stop-color:#3E484F;stop-opacity:0"/>
		</radialGradient>
		<path class="st8" d="M130.73,59.65c-20.46-32.31-58.86-39.49-58.86-39.49c1.25-0.27,2.51-0.45,3.77-0.79
			c4-1.09,10.48-4.04,13.79-11.33c4.23-9.28,18.71-10.68,23.98-0.2c3.02,6.02,7.27,10.63,16.62,12.14
			c10.23,1.65,15.64,14.7,6.75,23.47C136.77,43.45,130.01,49.68,130.73,59.65z"/>
		
			<linearGradient id="SVGID_9_" gradientUnits="userSpaceOnUse" x1="86.8464" y1="28.2644" x2="119.2368" y2="56.4209" gradientTransform="matrix(1 0 0 1 -1.7344 0)">
			<stop  offset="0" style="stop-color:#C2C7D0"/>
			<stop  offset="0.6319" style="stop-color:#FFFFFF"/>
			<stop  offset="0.6746" style="stop-color:#F2F2F3"/>
			<stop  offset="0.7292" style="stop-color:#DBDCDE"/>
			<stop  offset="0.7902" style="stop-color:#BCBEC4"/>
			<stop  offset="0.8558" style="stop-color:#979AA3"/>
			<stop  offset="0.9251" style="stop-color:#6F7481"/>
			<stop  offset="0.9966" style="stop-color:#47525F"/>
			<stop  offset="1" style="stop-color:#45505E"/>
		</linearGradient>
		<path class="st9" d="M101.3,20.88c-12.3,0-22.22,10.4-21.42,22.86c0.68,10.68,9.38,19.36,20.06,20.02
			c12.46,0.77,22.84-9.14,22.84-21.42C122.77,30.52,113.14,20.88,101.3,20.88z M102.61,63.37c-12.27,0.76-22.5-9-22.5-21.09
			c0-11.66,9.49-21.15,21.15-21.15c12.11,0,21.88,10.25,21.1,22.53C121.69,54.18,113.12,62.72,102.61,63.37z"/>
		
			<linearGradient id="SVGID_10_" gradientUnits="userSpaceOnUse" x1="80.7653" y1="37.1468" x2="125.4667" y2="47.4669" gradientTransform="matrix(1 0 0 1 -1.7344 0)">
			<stop  offset="0" style="stop-color:#5F6B75"/>
			<stop  offset="0.8132" style="stop-color:#FFFFFF"/>
		</linearGradient>
		<path class="st10" d="M98.79,19.53c-10.53,1.16-18.99,9.6-20.19,20.13c-1.56,13.81,9.26,25.57,22.78,25.57
			c12.64,0,22.93-10.29,22.93-22.91C124.32,28.82,112.59,18.01,98.79,19.53z M101.34,64.81c-12.94,0-23.37-10.94-22.53-24.05
			C79.53,29.53,88.67,20.4,99.9,19.7c13.1-0.81,24.03,9.61,24.03,22.54C123.93,54.68,113.79,64.81,101.34,64.81z"/>
		<defs>
			<filter id="Adobe_OpacityMaskFilter" filterUnits="userSpaceOnUse" x="79.31" y="20.43" width="43.88" height="43.87">
				<feColorMatrix  type="matrix" values="1 0 0 0 0  0 1 0 0 0  0 0 1 0 0  0 0 0 1 0"/>
			</filter>
		</defs>
		<mask maskUnits="userSpaceOnUse" x="79.31" y="20.43" width="43.88" height="43.87" id="SVGID_11_">
			<g class="st11">
				<radialGradient id="SVGID_12_" cx="101.3887" cy="42.2268" r="25.0783" gradientUnits="userSpaceOnUse">
					<stop  offset="0" style="stop-color:#FFFFFF"/>
					<stop  offset="0.2675" style="stop-color:#A3A3A3"/>
					<stop  offset="0.5366" style="stop-color:#4C4C4C"/>
					<stop  offset="0.7268" style="stop-color:#151515"/>
					<stop  offset="0.8187" style="stop-color:#000000"/>
				</radialGradient>
				<path class="st12" d="M76.31,42.23c0-13.85,11.23-25.08,25.08-25.08c13.85,0,25.08,11.23,25.08,25.08
					c0,13.85-11.23,25.07-25.08,25.07C87.53,67.3,76.31,56.08,76.31,42.23z"/>
			</g>
		</mask>
		<path class="st13" d="M79.31,42.37c0-12.57,10.57-22.67,23.31-21.9c10.93,0.66,19.83,9.54,20.53,20.46
			c0.82,12.76-9.3,23.36-21.9,23.36C89.13,64.3,79.31,54.48,79.31,42.37z"/>
		<defs>
			<filter id="Adobe_OpacityMaskFilter_1_" filterUnits="userSpaceOnUse" x="79.27" y="21.35" width="42.06" height="42.05">
				<feColorMatrix  type="matrix" values="1 0 0 0 0  0 1 0 0 0  0 0 1 0 0  0 0 0 1 0"/>
			</filter>
		</defs>
		<mask maskUnits="userSpaceOnUse" x="79.27" y="21.35" width="42.06" height="42.05" id="SVGID_13_">
			<g class="st14">
				<radialGradient id="SVGID_14_" cx="100.4308" cy="42.2513" r="24.0401" gradientUnits="userSpaceOnUse">
					<stop  offset="0" style="stop-color:#FFFFFF"/>
					<stop  offset="0.2675" style="stop-color:#A3A3A3"/>
					<stop  offset="0.5366" style="stop-color:#4C4C4C"/>
					<stop  offset="0.7268" style="stop-color:#151515"/>
					<stop  offset="0.8187" style="stop-color:#000000"/>
				</radialGradient>
				<path class="st15" d="M76.39,42.25c0-13.28,10.77-24.04,24.05-24.04c13.28,0,24.04,10.76,24.04,24.04
					c0,13.27-10.77,24.03-24.04,24.03C87.15,66.29,76.39,55.53,76.39,42.25z"/>
			</g>
		</mask>
		<path class="st16" d="M79.32,40.98C80,30.51,88.54,22.02,99.01,21.39c12.21-0.73,22.33,8.96,22.33,20.99
			c0,11.6-9.42,21.02-21.04,21.02C88.22,63.4,78.52,53.22,79.32,40.98z"/>
	</g>
	<g>
		<path class="st17" d="M142.96,102.13c0,4.9-2.9,5.92-5.32,5.92c-2.43,0-5.33-1.03-5.33-5.92V88.07h-7.27v14.92
			c0,7.24,4.82,11.76,12.61,11.82c7.77-0.05,12.59-4.58,12.59-11.82V88.07h-7.27V102.13z"/>
		<path class="st17" d="M172.34,87.69l-0.68-0.15c-0.88-0.19-2.42-0.21-2.6-0.21c-9.63,0-14.31,4.32-14.31,13.2l-0.01,13.44h7.22
			v-8.68c0-0.4,0-0.8-0.01-1.2c-0.04-6.23,0.22-9.76,6.17-9.94c0.56-0.02,2.2,0.01,3.07,0.31l1.15,0.39V87.69z"/>
		<path class="st17" d="M77.41,87.32c-9.63,0-14.31,4.32-14.31,13.2l-0.01,13.44h7.22v-8.68c0-0.4,0-0.8-0.01-1.2
			c-0.04-6.23,0.22-9.76,6.17-9.94c0.56-0.02,2.2,0.01,3.07,0.31l1.15,0.4v-7.16l-0.68-0.15C79.13,87.34,77.59,87.33,77.41,87.32z"
			/>
		<rect x="85.26" y="87.72" class="st17" width="7.23" height="26.25"/>
		<path class="st17" d="M28.96,87.72h-7.44l-0.09,0.77c-0.01,0.09-1.02,8.36-6.96,16.2c-5.92-7.82-6.95-16.11-6.96-16.2l-0.09-0.77
			H0l0.07,0.93c0.05,0.62,1.27,15.21,13.85,25.61l0.55,0.46l0.55-0.46c12.59-10.41,13.82-25,13.87-25.61L28.96,87.72z"/>
		<path class="st17" d="M112.33,97.83l-4.31-0.7c-1.93-0.29-2.89-1.17-2.84-1.89c0.06-0.91,1.7-1.8,4.04-1.65l0.08,0
			c2.01,0.14,3.63,0.55,4.82,1.21l0.51,0.29l5.39-4.41l-0.92-0.66c-2.19-1.57-5.14-2.44-9.27-2.72l-0.14-0.01
			c-5.76-0.36-11.8,2.23-12.2,7.86c-0.22,3.14,1.08,7.13,8.56,8.32l4.3,0.69c1.89,0.3,3.06,1.1,2.99,2.04
			c-0.1,1.51-3.15,1.89-5.06,1.79l-0.11-0.01c-2.39-0.16-4.26-0.75-5.73-1.81l-0.54-0.39l-5.58,4.59l0.81,0.67
			c2.95,2.44,6.32,3.13,10.5,3.43l0.19,0.01c0.47,0.03,0.94,0.04,1.4,0.04c2.67,0,5.16-0.48,7.11-1.4c2.93-1.37,4.59-3.66,4.8-6.63
			C121.43,102.01,118.15,98.77,112.33,97.83z"/>
		<path class="st17" d="M195.88,104.5l-0.11,0.27c-0.76,1.83-3.5,3.16-6.53,3.16c-4.58-0.19-5.92-3.26-6.38-5.08h20.05v-0.69
			c0-9.7-5.06-15.32-13.89-15.42H189c-9.57,0-13.86,6.93-13.86,13.8c0,8.34,5.72,13.94,14.25,13.94c7.29,0,10.71-4.16,11.95-6.2
			L195.88,104.5z M189.22,92.6c3.19,0,5.47,1.87,5.96,4.91h-11.99C183.61,94.82,186.35,92.6,189.22,92.6z"/>
		<path class="st17" d="M52.14,104.5l-0.11,0.27c-0.76,1.83-3.5,3.16-6.53,3.16c-4.58-0.19-5.92-3.26-6.38-5.08h20.05v-0.69
			c0-9.7-5.06-15.32-13.89-15.42h-0.01c-9.57,0-13.86,6.93-13.86,13.8c0,8.34,5.72,13.94,14.25,13.94c7.29,0,10.71-4.16,11.95-6.2
			L52.14,104.5z M45.48,92.6c3.19,0,5.47,1.87,5.96,4.91H39.45C39.87,94.82,42.61,92.6,45.48,92.6z"/>
	</g>
	<g>
		<path class="st17" d="M34.11,123.92l-0.76,0.86c-0.54-0.48-1.09-0.68-1.74-0.68c-0.7,0-1.22,0.32-1.22,0.93
			c0,0.57,0.31,0.82,1.61,1.23c1.37,0.43,2.33,1,2.33,2.48c0,1.41-1.1,2.41-2.98,2.41c-1.25,0-2.18-0.44-2.83-1.08l0.79-0.89
			c0.55,0.51,1.18,0.81,2,0.81c0.84,0,1.44-0.41,1.44-1.17c0-0.66-0.33-0.95-1.56-1.33c-1.65-0.51-2.36-1.17-2.36-2.36
			c0-1.31,1.12-2.17,2.67-2.17C32.67,122.95,33.43,123.29,34.11,123.92z"/>
		<path class="st17" d="M47.72,130.97l-0.2-3.28c-0.07-1.16-0.12-2.37-0.1-3.2l-1.43,5.63h-1.42l-1.52-5.64
			c0.05,1.06,0.02,2.13-0.05,3.26l-0.19,3.24h-1.45l0.62-7.85h1.93l1.4,5.5l1.32-5.5h1.95l0.61,7.85H47.72z"/>
		<path class="st17" d="M57.96,129.15l-0.49,1.82h-1.56l2.44-7.85h1.85l2.43,7.85h-1.59l-0.49-1.82H57.96z M59.25,124.27l-1,3.75h2
			L59.25,124.27z"/>
		<path class="st17" d="M71.14,127.82v3.15h-1.5v-7.85h2.34c2.06,0,3.11,0.75,3.11,2.31c0,1.07-0.52,1.7-1.59,2.12l2.06,3.42h-1.73
			l-1.74-3.15H71.14z M72.07,126.74c0.93,0,1.45-0.37,1.45-1.32c0-0.85-0.49-1.21-1.58-1.21h-0.81v2.53H72.07z"/>
		<path class="st17" d="M85.43,124.31v6.65h-1.51v-6.65h-2.11v-1.19h5.83l-0.16,1.19H85.43z"/>
		<path class="st17" d="M104.78,129.15l-0.49,1.82h-1.56l2.44-7.85h1.85l2.43,7.85h-1.59l-0.49-1.82H104.78z M106.07,124.27l-1,3.75
			h2L106.07,124.27z"/>
		<path class="st17" d="M121.11,129.74l-0.17,1.23h-4.47v-7.85h1.5v6.62H121.11z"/>
		<path class="st17" d="M129.4,129.15l-0.49,1.82h-1.56l2.44-7.85h1.85l2.43,7.85h-1.59l-0.49-1.82H129.4z M130.7,124.27l-1,3.75h2
			L130.7,124.27z"/>
		<path class="st17" d="M142.58,127.82v3.15h-1.5v-7.85h2.34c2.06,0,3.11,0.75,3.11,2.31c0,1.07-0.52,1.7-1.59,2.12l2.06,3.42h-1.73
			l-1.74-3.15H142.58z M143.52,126.74c0.93,0,1.45-0.37,1.45-1.32c0-0.85-0.49-1.21-1.58-1.21h-0.81v2.53H143.52z"/>
		<path class="st17" d="M160.13,130.97l-0.2-3.28c-0.07-1.16-0.12-2.37-0.1-3.2l-1.43,5.63h-1.42l-1.52-5.64
			c0.05,1.06,0.02,2.13-0.05,3.26l-0.19,3.24h-1.45l0.62-7.85h1.93l1.4,5.5l1.32-5.5h1.95l0.61,7.85H160.13z"/>
		<path class="st17" d="M174.15,123.92l-0.76,0.86c-0.55-0.48-1.09-0.68-1.74-0.68c-0.7,0-1.21,0.32-1.21,0.93
			c0,0.57,0.31,0.82,1.61,1.23c1.37,0.43,2.33,1,2.33,2.48c0,1.41-1.1,2.41-2.98,2.41c-1.25,0-2.18-0.44-2.83-1.08l0.79-0.89
			c0.55,0.51,1.18,0.81,2,0.81c0.84,0,1.44-0.41,1.44-1.17c0-0.66-0.33-0.95-1.56-1.33c-1.65-0.51-2.36-1.17-2.36-2.36
			c0-1.31,1.12-2.17,2.67-2.17C172.7,122.95,173.46,123.29,174.15,123.92z"/>
	</g>
</g>
</svg>
